<?xml version="1.0" encoding="UTF-8" standalone="no"?>
<svg
   xmlns:dc="http://purl.org/dc/elements/1.1/"
   xmlns:cc="http://creativecommons.org/ns#"
   xmlns:rdf="http://www.w3.org/1999/02/22-rdf-syntax-ns#"
   xmlns:svg="http://www.w3.org/2000/svg"
   xmlns="http://www.w3.org/2000/svg"
   xmlns:sodipodi="http://sodipodi.sourceforge.net/DTD/sodipodi-0.dtd"
   xmlns:inkscape="http://www.inkscape.org/namespaces/inkscape"
   version="1.1"
   x="0px"
   y="0px"
   viewBox="0 0 100 100"
   enable-background="new 0 0 100 100"
   xml:space="preserve"
   id="svg10"
   sodipodi:docname="squirrel2.svg"
   inkscape:version="0.92.4 (5da689c313, 2019-01-14)"><metadata
     id="metadata16"><rdf:RDF><cc:Work
         rdf:about=""><dc:format>image/svg+xml</dc:format><dc:type
           rdf:resource="http://purl.org/dc/dcmitype/StillImage" /></cc:Work></rdf:RDF></metadata><defs
     id="defs14" /><sodipodi:namedview
     pagecolor="#ffffff"
     bordercolor="#666666"
     borderopacity="1"
     objecttolerance="10"
     gridtolerance="10"
     guidetolerance="10"
     inkscape:pageopacity="0"
     inkscape:pageshadow="2"
     inkscape:window-width="1920"
     inkscape:window-height="1001"
     id="namedview12"
     showgrid="false"
     inkscape:zoom="9.44"
     inkscape:cx="26.138918"
     inkscape:cy="55.971618"
     inkscape:window-x="-9"
     inkscape:window-y="-9"
     inkscape:window-maximized="1"
     inkscape:current-layer="g8" /><g
     id="g8"><circle
       cx="78.699997"
       cy="30"
       r="1.9"
       id="circle2"
       style="fill:#ff7b00" /><path
       style="fill:#ff7b00"
       d="M 39,86.8 C 33.4,86.8 27.1,83.8 22.9,79 18.2,73.7 16.6,66.7 18.3,59.3 20.2,51.3 19.9,44.7 17.5,39.5 15.3,35 8.8,34.9 8.8,34.9 8.2,34.9 7.7,34.6 7.3,34.2 6.9,33.8 6.7,33.2 6.8,32.6 c 1.9,-12.6 11.3,-17 19,-17 0.1,0 0.2,0 0.3,0 6.3,0.1 13.1,3.8 17.4,9.5 4.3,5.8 5.7,12.8 3.7,19.8 -0.1,0.4 -0.2,0.9 -0.3,1.3 1.5,-2.5 3.5,-5 6,-7.4 3.8,-3.7 7.7,-6.1 9.6,-7.2 0.3,-5.6 4.3,-8.7 6.1,-9.8 0.6,-1.7 2.2,-5.5 5.6,-7.5 2.4,-1.4 5.1,-1.6 8.1,-0.8 0.7,0.2 1.2,0.7 1.4,1.3 0.2,0.7 0,1.4 -0.4,1.9 0,0 -2.3,2.8 -1.1,4.8 2.3,1.1 10.5,5.6 11.2,10.9 C 94,36.8 89.3,39 83,42 l -0.3,0.1 c -6.2,2.9 -5.1,6 -4.7,7.1 0.4,0 1.3,-0.3 2,-0.4 1.6,-0.4 3.6,-1 5.9,-0.8 3.7,0.3 5.6,2.9 5.5,5.3 -0.1,2.2 -1.9,4.5 -5.7,4.4 -1.7,0 -2.7,0.4 -3.9,0.9 -1.3,0.6 -2.8,1.2 -4.8,1 -6.2,-0.6 -8.9,-5.7 -9.4,-8.3 -0.2,-1.1 0.5,-2.1 1.5,-2.4 1.1,-0.2 2.1,0.4 2.4,1.5 0.1,0.2 1.2,4.7 5.9,5.2 1.1,0.1 1.8,-0.2 2.9,-0.7 1.3,-0.6 3,-1.3 5.6,-1.2 0.9,0 1.6,-0.3 1.6,-0.6 0,-0.4 -0.5,-1 -1.8,-1.1 -1.6,-0.1 -3.2,0.3 -4.5,0.7 -2.1,0.6 -5.5,1.5 -6.8,-2 -1,-2.8 -1.6,-8.2 6.7,-12.1 l 0.3,-0.1 c 4.5,-2.1 8.4,-3.9 8.2,-5.5 -0.3,-2.7 -5.7,-6.3 -9.4,-8 -0.3,-0.1 -0.5,-0.3 -0.7,-0.6 -1.9,-2.4 -1.7,-5.1 -0.8,-7.3 -0.8,0.1 -1.6,0.3 -2.2,0.7 -2.9,1.7 -4,5.8 -4,5.8 -0.1,0.6 -0.5,1.1 -1.1,1.3 -0.2,0.1 -4.9,2.4 -4.6,7.7 0,0.8 -0.4,1.5 -1.1,1.9 -0.2,0.1 -19.6,10.2 -18.2,25.8 0.2,1.8 0,6.4 0,7 0,1 -0.8,1.8 -1.7,1.9 -1,0.1 -1.9,-0.4 -2.2,-1.4 -0.1,-0.4 -3.5,-11.2 0.1,-24.2 1.6,-5.8 0.5,-11.6 -3.1,-16.4 -3.5,-4.7 -9.1,-7.8 -14.2,-7.9 -2.1,0 -12.1,0.4 -14.8,11.6 2.9,0.5 7.7,2 10,6.7 2.8,6 3.2,13.5 1.1,22.4 -1.8,7.8 1,13.1 3.7,16.1 4.3,4.9 10.5,6.7 14.3,6.3 0.1,0 0.1,0 0.2,0 H 81 c -0.3,-0.8 -0.9,-1.8 -1.8,-2.5 -1.2,-1 -2.9,-1.4 -5.1,-1.2 -0.7,0.1 -1.5,-0.3 -1.9,-0.9 -0.4,-0.6 -0.4,-1.4 -0.1,-2.1 0,0 3.1,-5.4 1.4,-9.7 -0.8,-2.1 -2.9,-3.7 -6,-4.7 -0.1,0 -0.2,-0.1 -0.2,-0.1 -0.1,-0.1 -3.8,-1.5 -7.5,1.6 -0.8,0.7 -2.1,0.6 -2.8,-0.2 -0.7,-0.8 -0.6,-2.1 0.2,-2.8 5.3,-4.5 10.6,-2.7 11.6,-2.3 4.3,1.3 7.2,3.7 8.5,7 1.4,3.6 0.6,7.6 -0.4,10.2 1.8,0.3 3.4,1 4.8,2.1 3.3,2.8 3.7,7.2 3.7,7.4 0,0.6 -0.2,1.1 -0.5,1.5 -0.4,0.4 -0.9,0.6 -1.5,0.6 h -43 C 40,86.7 39.5,86.8 39,86.8 Z"
       id="path4"
       inkscape:connector-curvature="0" /><path
       style="fill:#ff7b00"
       d="m 72,62.7 c -0.2,0 -0.3,0 -0.5,-0.1 -1.1,-0.3 -1.7,-1.4 -1.5,-2.4 l 1,-3.8 c 0.3,-1.1 1.4,-1.7 2.4,-1.5 1.1,0.3 1.7,1.4 1.5,2.4 l -1,3.8 c -0.2,1 -1,1.6 -1.9,1.6 z"
       id="path6"
       inkscape:connector-curvature="0" /></g></svg>